<svg id="Layer_1" data-name="Layer 1" xmlns="http://www.w3.org/2000/svg" xmlns:xlink="http://www.w3.org/1999/xlink" viewBox="0 0 1920 1280"><defs><style>.cls-1{fill:none;}.cls-2{fill:url(#linear-gradient);}</style><linearGradient id="linear-gradient" x1="960.5" y1="1152.62" x2="960.5" y2="320.5" gradientUnits="userSpaceOnUse"><stop offset="0.22" stop-color="#fff" stop-opacity="0"/><stop offset="0.79" stop-color="#fff"/></linearGradient></defs><rect class="cls-1" width="1920" height="1280"/><path class="cls-2" d="M1242.42,240.52H1029L960.5,404.88,892,240.52H678.58l-331.34,799h213.4L785.28,497.33l68.51,164.35-156.12,377.8H911.08l224.64-542.15,224.63,542.15h213.41Zm-14.66,166.12h-95.51V395c45.2-38.51,62.34-55.25,62.34-66.51,0-8.11-6.2-15.09-14.11-15.09a20.07,20.07,0,0,0-19.79,19.75L1135,324.52c0-21.92,20.24-41.43,45.58-41.43s45.79,20.34,45.79,44.13c0,19.82-16.76,38.89-36.34,49.92h37.75Z"/></svg>