<svg id="Layer_1" data-name="Layer 1" xmlns="http://www.w3.org/2000/svg" xmlns:xlink="http://www.w3.org/1999/xlink"  98.7891><defs><style>.cls-1{fill:none;}.cls-2{fill:url(#linear-gradient);}</style><linearGradient id="linear-gradient" x1="0" y1="0" x2="307.29" y2="1" gradientUnits="userSpaceOnUse"><stop offset="0.22" stop-color="#fff" stop-opacity="0.1"/><stop offset="0.79" stop-color="#fff"/></linearGradient></defs><rect class="cls-1" width="615" height="99"/><path class="cls-2" d="M0,81.68,15.18,66.8c3.92,5.8,11.25,9.32,19.16,9.32,5.33,0,10.54-1.94,10.54-5.8,0-4.87-9.67-9.14-18.92-13.25-12-5.15-22.21-13-22.21-27.24,0-16.35,15.53-28,33.46-28,14.41,0,25.66,6.8,29.35,16.11l-14.47,14c-2.81-5-10.08-7.15-14.59-7.15-5.16,0-8.85,2.64-8.85,5.86,0,4.34,6.68,5.74,16.88,10,14.76,6.21,24.55,15.23,24.55,29.18,0,18-16.76,29.18-35.69,29.18C18.87,99,4.75,92.11,0,81.68ZM106.35,26.55V39.73h30V60.65h-30V74.18h36.44v23.5H81.56V3.23h61.23V26.55ZM207.19,97.68l-25.26-41v41H156.86l-.12-94.45H192.6c20.39,0,35,13.77,35,30.7a28.46,28.46,0,0,1-16.35,25.84l25.31,37.91Zm-25.37-53,10.25.06c5.33.06,10.2-3.69,10.2-9.49s-4.93-9.49-10.2-9.49H181.82Zm148-41.48L286.29,98.68H274.92L231.56,3.23h27.13l21.8,51.15L302.34,3.23Zm9.44,0h25.08V97.68H339.26Zm37.38,47.22c0-27.95,22.62-49.45,52-49.45,12.19.18,25.26,5.51,34.92,14.3L449.18,33.81c-5.8-5.27-13.48-8.73-20.45-8.73-14.53,0-26.66,11.08-26.66,25.55,0,14.65,12.66,25.43,26.13,25.43,7.91,0,15-3.75,21.1-9.2l14.29,19A52,52,0,0,1,428.2,99.79C401.54,99.79,376.64,80.1,376.64,50.45ZM499,26.55V39.73h30V60.65H499V74.18h36.45v23.5H474.26V3.23h61.23V26.55Zm45.47,55.13L559.69,66.8c3.92,5.8,11.25,9.32,19.16,9.32,5.33,0,10.54-1.94,10.54-5.8,0-4.87-9.66-9.14-18.92-13.25-12-5.15-22.21-13-22.21-27.24,0-16.35,15.53-28,33.46-28,14.41,0,25.66,6.8,29.35,16.11l-14.47,14c-2.81-5-10.08-7.15-14.59-7.15-5.16,0-8.85,2.64-8.85,5.86,0,4.34,6.68,5.74,16.88,10,14.76,6.21,24.55,15.23,24.55,29.18,0,18-16.76,29.18-35.68,29.18C563.38,99,549.26,92.11,544.51,81.68Z" transform="translate(652.71 590.61)"/></svg>